<svg xmlns="http://www.w3.org/2000/svg" width="800" height="800" viewBox="0 0 800 800">
  <rect width="800" height="800" fill="#111827" />
  <!-- Reloj base -->
  <circle cx="400" cy="400" r="180" fill="#2d3748" stroke="#4a5568" stroke-width="8" />
  <circle cx="400" cy="400" r="160" fill="#1a202c" stroke="#2d3748" stroke-width="4" />
  
  <!-- Panel solar -->
  <circle cx="400" cy="400" r="155" fill="none" stroke="#f59e0b" stroke-width="3" stroke-dasharray="4,8" />
  
  <!-- Pantalla del reloj -->
  <rect x="340" y="310" width="120" height="160" rx="10" ry="10" fill="#1e293b" stroke="#4a5568" stroke-width="2" />
  
  <!-- Elementos de la pantalla -->
  <rect x="350" y="325" width="100" height="25" rx="5" ry="5" fill="#3b82f6" opacity="0.7" />
  <rect x="350" y="360" width="100" height="10" rx="2" ry="2" fill="#60a5fa" opacity="0.5" />
  <rect x="350" y="380" width="70" height="10" rx="2" ry="2" fill="#60a5fa" opacity="0.5" />
  <rect x="350" y="400" width="100" height="10" rx="2" ry="2" fill="#60a5fa" opacity="0.5" />
  <rect x="350" y="420" width="80" height="10" rx="2" ry="2" fill="#60a5fa" opacity="0.5" />
  
  <!-- Botones laterales -->
  <rect x="470" y="360" width="20" height="15" rx="2" ry="2" fill="#374151" stroke="#4b5563" stroke-width="1" />
  <rect x="470" y="390" width="20" height="15" rx="2" ry="2" fill="#374151" stroke="#4b5563" stroke-width="1" />
  <rect x="470" y="420" width="20" height="15" rx="2" ry="2" fill="#374151" stroke="#4b5563" stroke-width="1" />
  
  <!-- Correa superior -->
  <path d="M 350,220 Q 400,180 450,220 L 450,300 L 350,300 Z" fill="#1f2937" stroke="#374151" stroke-width="2" />
  <path d="M 370,225 Q 400,195 430,225 L 430,270 L 370,270 Z" fill="#111827" stroke="#1f2937" stroke-width="1" />
  
  <!-- Correa inferior -->
  <path d="M 350,480 Q 400,520 450,480 L 450,400 L 350,400 Z" fill="#1f2937" stroke="#374151" stroke-width="2" />
  <path d="M 370,475 Q 400,505 430,475 L 430,430 L 370,430 Z" fill="#111827" stroke="#1f2937" stroke-width="1" />
  
  <!-- Marcador Garmin -->
  <text x="400" y="540" fill="#f59e0b" font-family="Arial, sans-serif" font-size="24" text-anchor="middle" font-weight="bold">INSTINCT 2 SOLAR</text>
  <text x="400" y="260" fill="#f59e0b" font-family="Arial, sans-serif" font-size="28" text-anchor="middle" font-weight="bold">GARMIN</text>
  
  <!-- Símbolo Solar -->
  <circle cx="400" cy="340" r="10" fill="none" stroke="#f59e0b" stroke-width="2" />
  <line x1="400" y1="320" x2="400" y2="325" stroke="#f59e0b" stroke-width="2" />
  <line x1="400" y1="355" x2="400" y2="360" stroke="#f59e0b" stroke-width="2" />
  <line x1="380" y1="340" x2="385" y2="340" stroke="#f59e0b" stroke-width="2" />
  <line x1="415" y1="340" x2="420" y2="340" stroke="#f59e0b" stroke-width="2" />
  <line x1="386" y1="326" x2="390" y2="330" stroke="#f59e0b" stroke-width="2" />
  <line x1="410" y1="350" x2="414" y2="354" stroke="#f59e0b" stroke-width="2" />
  <line x1="386" y1="354" x2="390" y2="350" stroke="#f59e0b" stroke-width="2" />
  <line x1="410" y1="330" x2="414" y2="326" stroke="#f59e0b" stroke-width="2" />
</svg>
