<svg width="100" height="100" viewBox="0 0 100 100" xmlns="http://www.w3.org/2000/svg">
  <defs>
    <pattern id="solar-grid" patternUnits="userSpaceOnUse" width="50" height="50">
      <!-- Sol pequeño -->
      <circle cx="25" cy="25" r="8" fill="rgba(251, 191, 36, 0.2)" />
      <circle cx="25" cy="25" r="5" fill="rgba(251, 191, 36, 0.3)" />
      
      <!-- Rayos solares -->
      <line x1="25" y1="10" x2="25" y2="15" stroke="rgba(251, 191, 36, 0.2)" stroke-width="2" stroke-linecap="round"/>
      <line x1="25" y1="35" x2="25" y2="40" stroke="rgba(251, 191, 36, 0.2)" stroke-width="2" stroke-linecap="round"/>
      <line x1="10" y1="25" x2="15" y2="25" stroke="rgba(251, 191, 36, 0.2)" stroke-width="2" stroke-linecap="round"/>
      <line x1="35" y1="25" x2="40" y2="25" stroke="rgba(251, 191, 36, 0.2)" stroke-width="2" stroke-linecap="round"/>
      
      <!-- Rayos diagonales -->
      <line x1="15" y1="15" x2="18" y2="18" stroke="rgba(251, 191, 36, 0.2)" stroke-width="2" stroke-linecap="round"/>
      <line x1="32" y1="32" x2="35" y2="35" stroke="rgba(251, 191, 36, 0.2)" stroke-width="2" stroke-linecap="round"/>
      <line x1="15" y1="35" x2="18" y2="32" stroke="rgba(251, 191, 36, 0.2)" stroke-width="2" stroke-linecap="round"/>
      <line x1="32" y1="18" x2="35" y2="15" stroke="rgba(251, 191, 36, 0.2)" stroke-width="2" stroke-linecap="round"/>
    </pattern>
    
    <!-- Patrón de paneles solares -->
    <pattern id="solar-panels" patternUnits="userSpaceOnUse" width="40" height="40">
      <rect x="2" y="2" width="16" height="16" fill="rgba(37, 99, 235, 0.15)" stroke="rgba(37, 99, 235, 0.3)" stroke-width="1"/>
      <rect x="20" y="2" width="16" height="16" fill="rgba(37, 99, 235, 0.15)" stroke="rgba(37, 99, 235, 0.3)" stroke-width="1"/>
      <rect x="2" y="20" width="16" height="16" fill="rgba(37, 99, 235, 0.15)" stroke="rgba(37, 99, 235, 0.3)" stroke-width="1"/>
      <rect x="20" y="20" width="16" height="16" fill="rgba(37, 99, 235, 0.15)" stroke="rgba(37, 99, 235, 0.3)" stroke-width="1"/>
    </pattern>
  </defs>
  
  <!-- Aplicación de los patrones -->
  <rect width="100" height="100" fill="url(#solar-grid)"/>
  <rect width="100" height="100" fill="url(#solar-panels)" opacity="0.7"/>
</svg>
